<?xml version="1.0" encoding="UTF-8" standalone="no"?>
<!-- Created with Inkscape (http://www.inkscape.org/) -->

<svg
   xmlns:dc="http://purl.org/dc/elements/1.1/"
   xmlns:cc="http://creativecommons.org/ns#"
   xmlns:rdf="http://www.w3.org/1999/02/22-rdf-syntax-ns#"
   xmlns:svg="http://www.w3.org/2000/svg"
   xmlns="http://www.w3.org/2000/svg"
   xmlns:sodipodi="http://sodipodi.sourceforge.net/DTD/sodipodi-0.dtd"
   xmlns:inkscape="http://www.inkscape.org/namespaces/inkscape"
   version="1.1"
   id="svg3876"
   xml:space="preserve"
   width="682.66669"
   height="682.66669"
   viewBox="0 0 682.66669 682.66669"
   sodipodi:docname="tb_rubyeditor.ai"
   inkscape:version="0.92.1 r15371"><metadata
     id="metadata3882"><rdf:RDF><cc:Work
         rdf:about=""><dc:format>image/svg+xml</dc:format><dc:type
           rdf:resource="http://purl.org/dc/dcmitype/StillImage" /><dc:title></dc:title></cc:Work></rdf:RDF></metadata><defs
     id="defs3880"><clipPath
       clipPathUnits="userSpaceOnUse"
       id="clipPath3908"><path
         d="M 0,512 H 512 V 0 H 0 Z"
         id="path3906"
         inkscape:connector-curvature="0" /></clipPath><clipPath
       clipPathUnits="userSpaceOnUse"
       id="clipPath4020"><path
         d="M 0,512 H 512 V 0 H 0 Z"
         id="path4018"
         inkscape:connector-curvature="0" /></clipPath></defs><sodipodi:namedview
     pagecolor="#ffffff"
     bordercolor="#666666"
     borderopacity="1"
     objecttolerance="10"
     gridtolerance="10"
     guidetolerance="10"
     inkscape:pageopacity="0"
     inkscape:pageshadow="2"
     inkscape:window-width="1920"
     inkscape:window-height="1001"
     id="namedview3878"
     showgrid="false"
     inkscape:zoom="1.1396484"
     inkscape:cx="341.33334"
     inkscape:cy="306.2348"
     inkscape:window-x="-9"
     inkscape:window-y="-9"
     inkscape:window-maximized="1"
     inkscape:current-layer="g3884" /><g
     id="g3884"
     inkscape:groupmode="layer"
     inkscape:label="tb_rubyeditor"
     transform="matrix(1.3333333,0,0,-1.3333333,0,682.66667)"><g
       id="g3886"
       transform="translate(44.9895,428.8898)"><path
         d="M 0,0 291.502,51.4 V -347.809 L 0,-399.209 Z"
         style="fill:#ffffff;fill-opacity:1;fill-rule:nonzero;stroke:none"
         id="path3888"
         inkscape:connector-curvature="0" /></g><g
       id="g3890"
       transform="translate(44.9895,428.8898)"><path
         d="M 0,0 291.502,51.4 V -347.809 L 0,-399.209 Z"
         style="fill:none;stroke:#000000;stroke-width:5;stroke-linecap:butt;stroke-linejoin:miter;stroke-miterlimit:10;stroke-dasharray:none;stroke-opacity:1"
         id="path3892"
         inkscape:connector-curvature="0" /></g><g
       id="g3894"
       transform="translate(50.3122,35.9421)"><path
         d="M 0,0 280.857,49.523 V 438.086 L 0,388.563 Z M 291.503,40.754 -10.646,-12.523 v 409.855 l 302.149,53.277 z"
         style="fill:#000000;fill-opacity:1;fill-rule:nonzero;stroke:none"
         id="path3896"
         inkscape:connector-curvature="0" /></g><g
       id="g3898"
       transform="translate(50.3122,35.9421)"><path
         d="M 0,0 280.857,49.523 V 438.086 L 0,388.563 Z M 291.503,40.754 -10.646,-12.523 v 409.855 l 302.149,53.277 z"
         style="fill:none;stroke:#000000;stroke-width:5;stroke-linecap:butt;stroke-linejoin:miter;stroke-miterlimit:10;stroke-dasharray:none;stroke-opacity:1"
         id="path3900"
         inkscape:connector-curvature="0" /></g><g
       id="g3902"><g
         id="g3904"
         clip-path="url(#clipPath3908)"><g
           id="g3910"
           transform="translate(79.6409,367.1342)"><path
             d="m 0,0 14.851,2.619 0.479,-17.082 c 5.509,7.598 11.018,13.36 16.367,17.258 5.35,3.897 10.779,6.371 16.288,7.343 9.661,1.703 17.006,-0.115 22.036,-5.456 5.03,-5.341 7.346,-14.274 6.946,-26.64 L 60.44,-24.872 c 0.16,8.172 -1.038,13.949 -3.593,17.171 -2.555,3.222 -6.387,4.383 -11.337,3.51 -2.156,-0.38 -4.391,-1.174 -6.547,-2.352 -2.236,-1.193 -4.471,-2.785 -6.787,-4.949 -2.315,-2.085 -4.79,-4.757 -7.425,-7.857 -2.635,-3.099 -5.429,-6.865 -8.383,-11.139 V -90.369 L 0,-93.255 Z"
             style="fill:#fe0000;fill-opacity:1;fill-rule:nonzero;stroke:none"
             id="path3912"
             inkscape:connector-curvature="0" /></g><g
           id="g3914"
           transform="translate(79.6409,367.1342)"><path
             d="m 0,0 14.851,2.619 0.479,-17.082 c 5.509,7.598 11.018,13.36 16.367,17.258 5.35,3.897 10.779,6.371 16.288,7.343 9.661,1.703 17.006,-0.115 22.036,-5.456 5.03,-5.341 7.346,-14.274 6.946,-26.64 L 60.44,-24.872 c 0.16,8.172 -1.038,13.949 -3.593,17.171 -2.555,3.222 -6.387,4.383 -11.337,3.51 -2.156,-0.38 -4.391,-1.174 -6.547,-2.352 -2.236,-1.193 -4.471,-2.785 -6.787,-4.949 -2.315,-2.085 -4.79,-4.757 -7.425,-7.857 -2.635,-3.099 -5.429,-6.865 -8.383,-11.139 V -90.369 L 0,-93.255 Z"
             style="fill:none;stroke:#ff0000;stroke-width:3;stroke-linecap:butt;stroke-linejoin:miter;stroke-miterlimit:10;stroke-dasharray:none;stroke-opacity:1"
             id="path3916"
             inkscape:connector-curvature="0" /></g><g
           id="g3918"
           transform="translate(244.115,350.3861)"><path
             d="m 0,0 c 0,4.87 -0.319,9.285 -1.038,13.31 -0.719,3.945 -1.836,7.261 -3.433,9.854 -1.517,2.607 -3.513,4.57 -5.988,5.731 -2.396,1.254 -5.35,1.532 -8.703,0.94 -2.076,-0.366 -4.152,-1.051 -6.228,-2.056 -2.076,-1.005 -4.311,-2.517 -6.547,-4.428 -2.235,-1.911 -4.631,-4.329 -7.185,-7.335 -2.555,-3.005 -5.19,-6.504 -8.065,-10.763 v -45.191 c 3.194,-0.714 6.388,-1.109 9.661,-1.25 3.274,-0.142 6.468,0.102 9.422,0.623 3.752,0.662 7.265,1.84 10.698,3.643 3.354,1.789 6.388,4.24 8.943,7.485 2.555,3.165 4.631,7.204 6.148,12.022 C -0.719,-12.502 0,-6.707 0,0 m 16.607,3.727 c 0,-7.745 -1.038,-14.874 -3.194,-21.322 -2.155,-6.448 -5.189,-12.173 -9.102,-17.095 -3.912,-4.921 -8.782,-9.053 -14.371,-12.274 -5.669,-3.235 -12.056,-5.48 -19.082,-6.718 -5.509,-0.972 -11.178,-1.412 -16.927,-1.388 -5.748,0.024 -11.497,0.687 -17.166,2.003 V 72.524 l 16.208,2.858 V 39.294 l -0.718,-17.373 c 4.63,7.044 9.66,12.402 14.93,15.886 5.349,3.499 11.018,5.776 17.086,6.846 5.35,0.943 10.06,0.656 14.052,-0.876 4.072,-1.518 7.426,-4.04 10.14,-7.633 2.715,-3.594 4.791,-8.098 6.148,-13.607 1.278,-5.524 1.996,-11.784 1.996,-18.81"
             style="fill:#fe0000;fill-opacity:1;fill-rule:nonzero;stroke:none"
             id="path3920"
             inkscape:connector-curvature="0" /></g><g
           id="g3922"
           transform="translate(244.115,350.3861)"><path
             d="m 0,0 c 0,4.87 -0.319,9.285 -1.038,13.31 -0.719,3.945 -1.836,7.261 -3.433,9.854 -1.517,2.607 -3.513,4.57 -5.988,5.731 -2.396,1.254 -5.35,1.532 -8.703,0.94 -2.076,-0.366 -4.152,-1.051 -6.228,-2.056 -2.076,-1.005 -4.311,-2.517 -6.547,-4.428 -2.235,-1.911 -4.631,-4.329 -7.185,-7.335 -2.555,-3.005 -5.19,-6.504 -8.065,-10.763 v -45.191 c 3.194,-0.714 6.388,-1.109 9.661,-1.25 3.274,-0.142 6.468,0.102 9.422,0.623 3.752,0.662 7.265,1.84 10.698,3.643 3.354,1.789 6.388,4.24 8.943,7.485 2.555,3.165 4.631,7.204 6.148,12.022 C -0.719,-12.502 0,-6.707 0,0 Z m 16.607,3.727 c 0,-7.745 -1.038,-14.874 -3.194,-21.322 -2.155,-6.448 -5.189,-12.173 -9.102,-17.095 -3.912,-4.921 -8.782,-9.053 -14.371,-12.274 -5.669,-3.235 -12.056,-5.48 -19.082,-6.718 -5.509,-0.972 -11.178,-1.412 -16.927,-1.388 -5.748,0.024 -11.497,0.687 -17.166,2.003 V 72.524 l 16.208,2.858 V 39.294 l -0.718,-17.373 c 4.63,7.044 9.66,12.402 14.93,15.886 5.349,3.499 11.018,5.776 17.086,6.846 5.35,0.943 10.06,0.656 14.052,-0.876 4.072,-1.518 7.426,-4.04 10.14,-7.633 2.715,-3.594 4.791,-8.098 6.148,-13.607 1.278,-5.524 1.996,-11.784 1.996,-18.81 z"
             style="fill:none;stroke:#ff0000;stroke-width:3;stroke-linecap:butt;stroke-linejoin:miter;stroke-miterlimit:10;stroke-dasharray:none;stroke-opacity:1"
             id="path3924"
             inkscape:connector-curvature="0" /></g></g></g><g
       id="g3926"
       transform="translate(79.3215,220.9674)"><path
         d="M 0,0 15.968,2.816 V -149.682 L 0,-152.498 Z"
         style="fill:#808080;fill-opacity:1;fill-rule:nonzero;stroke:none"
         id="path3928"
         inkscape:connector-curvature="0" /></g><g
       id="g3930"
       transform="translate(79.3215,220.9674)"><path
         d="M 0,0 15.968,2.816 V -149.682 L 0,-152.498 Z"
         style="fill:none;stroke:#808080;stroke-width:3;stroke-linecap:butt;stroke-linejoin:miter;stroke-miterlimit:10;stroke-dasharray:none;stroke-opacity:1"
         id="path3932"
         inkscape:connector-curvature="0" /></g><g
       id="g3934"
       transform="translate(223.735,179.02)"><path
         d="m 0,0 174.42,173.7 18.9,-18.81 -174.6,-173.7 z"
         style="fill:#fe0000;fill-opacity:1;fill-rule:nonzero;stroke:none"
         id="path3936"
         inkscape:connector-curvature="0" /></g><g
       id="g3938"
       transform="translate(423.265,378.64)"><path
         d="M 0,0 -27.36,-27.27 -8.64,-45.9 18.72,-18.63 Z"
         style="fill:#f9fafa;fill-opacity:1;fill-rule:nonzero;stroke:none"
         id="path3940"
         inkscape:connector-curvature="0" /></g><g
       id="g3942"
       transform="translate(241.195,161.2)"><path
         d="M 0,0 -95.58,-76.77 12.51,-12.51 Z"
         style="fill:#9da161;fill-opacity:1;fill-rule:nonzero;stroke:none"
         id="path3944"
         inkscape:connector-curvature="0" /></g><g
       id="g3946"
       transform="translate(411.025,391.24)"><path
         d="M 0,0 28.98,27.18 48.87,22.41 12.6,-12.51 Z"
         style="fill:#a6262a;fill-opacity:1;fill-rule:nonzero;stroke:none"
         id="path3948"
         inkscape:connector-curvature="0" /></g><g
       id="g3950"
       transform="translate(147.685,86.41)"><path
         d="M 0,0 93.06,74.07 74.16,92.7 Z"
         style="fill:#e6e8ae;fill-opacity:1;fill-rule:nonzero;stroke:none"
         id="path3952"
         inkscape:connector-curvature="0" /></g><g
       id="g3954"
       transform="translate(443.515,360.73)"><path
         d="m 0,0 -27.54,-27.45 12.51,-12.42 27.54,27.45 z"
         style="fill:#4e5152;fill-opacity:1;fill-rule:nonzero;stroke:none"
         id="path3956"
         inkscape:connector-curvature="0" /></g><g
       id="g3958"
       transform="translate(210.595,191.71)"><path
         d="m 0,0 174.69,173.97 12.6,-12.6 L 12.6,-12.6 Z"
         style="fill:#aa0000;fill-opacity:1;fill-rule:nonzero;stroke:none"
         id="path3960"
         inkscape:connector-curvature="0" /></g><g
       id="g3962"
       transform="translate(241.555,157.78)"><path
         d="m 0,0 174.69,173.97 12.6,-12.6 L 12.6,-12.6 Z"
         style="fill:#830101;fill-opacity:1;fill-rule:nonzero;stroke:none"
         id="path3964"
         inkscape:connector-curvature="0" /></g><g
       id="g3966"
       transform="translate(423.985,378.55)"><path
         d="M 0,0 37.17,37.08 56.07,18.27 18.9,-18.81 Z"
         style="fill:#e47073;fill-opacity:1;fill-rule:nonzero;stroke:none"
         id="path3968"
         inkscape:connector-curvature="0" /></g><g
       id="g3970"
       transform="translate(412.465,391.6)"><path
         d="m 0,0 -27.54,-27.45 12.51,-12.42 27.54,27.45 z"
         style="fill:#8c9191;fill-opacity:1;fill-rule:nonzero;stroke:none"
         id="path3972"
         inkscape:connector-curvature="0" /></g><g
       id="g3974"
       transform="translate(147.685,86.41)"><path
         d="M 0,0 74.07,93.24 0,0 61.56,105.66 74.07,93.06 Z"
         style="fill:#d3d881;fill-opacity:1;fill-rule:nonzero;stroke:none"
         id="path3976"
         inkscape:connector-curvature="0" /></g><g
       id="g3978"
       transform="translate(441.355,359.02)"><path
         d="M 0,0 34.29,34.92 41.58,18.27 12.6,-12.51 Z"
         style="fill:#65171a;fill-opacity:1;fill-rule:nonzero;stroke:none"
         id="path3980"
         inkscape:connector-curvature="0" /></g><g
       id="g3982"
       transform="translate(192.775,118.54)"><path
         d="M 0,0 -16.47,16.74 -45.09,-32.13 Z"
         style="fill:#000000;fill-opacity:1;fill-rule:nonzero;stroke:none"
         id="path3984"
         inkscape:connector-curvature="0" /></g><g
       id="g3986"
       transform="translate(210.595,192.07)"><path
         d="M 0,0 44.1,-43.92"
         style="fill:none;stroke:#000000;stroke-width:6;stroke-linecap:round;stroke-linejoin:miter;stroke-miterlimit:4;stroke-dasharray:none;stroke-opacity:1"
         id="path3988"
         inkscape:connector-curvature="0" /></g><g
       id="g3990"
       transform="translate(384.925,365.68)"><path
         d="M 0,0 44.1,-43.92"
         style="fill:none;stroke:#000000;stroke-width:6;stroke-linecap:round;stroke-linejoin:miter;stroke-miterlimit:4;stroke-dasharray:none;stroke-opacity:1"
         id="path3992"
         inkscape:connector-curvature="0" /></g><g
       id="g3994"
       transform="translate(241.555,159.22)"><path
         d="m 0,0 174.69,173.97 27.54,27.45"
         style="fill:none;stroke:#000000;stroke-width:6;stroke-linecap:round;stroke-linejoin:miter;stroke-miterlimit:4;stroke-dasharray:none;stroke-opacity:1"
         id="path3996"
         inkscape:connector-curvature="0" /></g><g
       id="g3998"
       transform="translate(441.895,361.81)"><path
         d="M 0,0 35.01,34.92"
         style="fill:none;stroke:#000000;stroke-width:6;stroke-linecap:round;stroke-linejoin:miter;stroke-miterlimit:4;stroke-dasharray:none;stroke-opacity:1"
         id="path4000"
         inkscape:connector-curvature="0" /></g><g
       id="g4002"
       transform="translate(240.565,161.2)"><path
         d="M 0,0 -67.05,-55.89"
         style="fill:none;stroke:#000000;stroke-width:6;stroke-linecap:round;stroke-linejoin:miter;stroke-miterlimit:4;stroke-dasharray:none;stroke-opacity:1"
         id="path4004"
         inkscape:connector-curvature="0" /></g><g
       id="g4006"
       transform="translate(411.025,391.6)"><path
         d="M 0,0 44.1,-43.92"
         style="fill:none;stroke:#000000;stroke-width:6;stroke-linecap:round;stroke-linejoin:miter;stroke-miterlimit:4;stroke-dasharray:none;stroke-opacity:1"
         id="path4008"
         inkscape:connector-curvature="0" /></g><g
       id="g4010"
       transform="translate(223.735,178.3)"><path
         d="M 0,0 236.16,235.35"
         style="fill:none;stroke:#000000;stroke-width:6;stroke-linecap:round;stroke-linejoin:miter;stroke-miterlimit:4;stroke-dasharray:none;stroke-opacity:1"
         id="path4012"
         inkscape:connector-curvature="0" /></g><g
       id="g4014"><g
         id="g4016"
         clip-path="url(#clipPath4020)"><g
           id="g4022"
           transform="translate(436.855,417.79)"><path
             d="M 0,0 C 23.94,4.68 45.9,-16.92 43.92,-43.2"
             style="fill:none;stroke:#000000;stroke-width:6;stroke-linecap:round;stroke-linejoin:miter;stroke-miterlimit:4;stroke-dasharray:none;stroke-opacity:1"
             id="path4024"
             inkscape:connector-curvature="0" /></g><g
           id="g4026"
           transform="translate(480.865,373.96)"><path
             d="m 0,0 -227.79,-227.07 -105.57,-61.47 61.65,105.12 227.79,226.98"
             style="fill:none;stroke:#000000;stroke-width:6;stroke-linecap:round;stroke-linejoin:miter;stroke-miterlimit:4;stroke-dasharray:none;stroke-opacity:1"
             id="path4028"
             inkscape:connector-curvature="0" /></g></g></g></g></svg>